# xmcd
# Track frame offsets:
# 150
# 22014
# 38584
# 56209
# 77153
# 88023
# 101201
# 118861
# 139988
# 164046
# 179908
# 193102
#
# Disc length: 2734 seconds
# Revision: 0
# Processed by: cddbd v1.5.2PL0 Copyright (c) Steve Scherf et al.
# Submitted via: VisiTrax 2.11.1.266 - For more info visit www.synapsa.com
#
DISCID=b70aac0c
DTITLE=Blues Preachers. The - Dead Catz Can Bounce
DYEAR=2010
DGENRE=Blues
TTITLE0=Dead Catz Can Bounce
TTITLE1=Free Train Agreement. The
TTITLE2=Arrivals And Departures
TTITLE3=Without You
TTITLE4=Little Martha
TTITLE5=I Saw The Light
TTITLE6=Divine Justice Coming Down
TTITLE7=Big Jack Lang
TTITLE8=Gambling Bar Room Blues
TTITLE9=Bill From Erskinville
TTITLE10=Before The Curtain Call
TTITLE11=Salty Dog
EXTD=Great Sydney 30's and 40's era acoustic blues duo
EXTT0=
EXTT1=
EXTT2=
EXTT3=
EXTT4=
EXTT5=
EXTT6=
EXTT7=
EXTT8=
EXTT9=
EXTT10=
EXTT11=
PLAYORDER=
